<svg width="32" height="32" viewBox="0 0 448 32" fill="none" xmlns="http://www.w3.org/2000/svg">
<path d="M432.378 18.054L427.243 23.1889C426.952 23.4799 426.61 23.6254 426.216 23.6254C425.822 23.6254 425.48 23.4799 425.189 23.1889C424.898 22.8979 424.752 22.5556 424.752 22.1619C424.752 21.7682 424.898 21.4259 425.189 21.1349L430.324 16L425.189 10.8651C424.898 10.5741 424.752 10.2318 424.752 9.83809C424.752 9.44442 424.898 9.10209 425.189 8.81111C425.48 8.52013 425.822 8.37464 426.216 8.37464C426.61 8.37464 426.952 8.52013 427.243 8.81111L432.378 13.946L437.513 8.81111C437.804 8.52013 438.146 8.37464 438.54 8.37464C438.933 8.37464 439.276 8.52013 439.567 8.81111C439.858 9.10209 440.003 9.44442 440.003 9.83809C440.003 10.2318 439.858 10.5741 439.567 10.8651L434.432 16L439.567 21.1349C439.858 21.4259 440.003 21.7682 440.003 22.1619C440.003 22.5556 439.858 22.8979 439.567 23.1889C439.276 23.4799 438.933 23.6254 438.54 23.6254C438.146 23.6254 437.804 23.4799 437.513 23.1889L432.378 18.054Z" fill="white"/>
<path d="M17.0703 13.7617V15.793H14.5508V24.7578H12.0508V7.02344H14.5508V13.7617H17.0703ZM3.57422 8.72266V18.3516C5.84961 18.3223 8.29102 18.1074 10.8594 17.5898L11.1133 19.6602C8.14453 20.2656 5.25391 20.4219 2.63672 20.4219H1.09375V8.72266H3.57422ZM23.5742 8.21484C26.3867 8.19531 28.4961 10.0312 28.4961 12.5703C28.4961 15.1289 26.3867 16.9453 23.5742 16.9453C20.7617 16.9453 18.6328 15.1289 18.6328 12.5703C18.6328 10.0312 20.7617 8.19531 23.5742 8.21484ZM23.5742 10.3633C22.168 10.3633 21.0938 11.1836 21.1133 12.5703C21.0938 13.9766 22.168 14.7773 23.5742 14.7773C24.9805 14.7773 26.0547 13.9766 26.0742 12.5703C26.0547 11.1836 25 10.3633 23.5742 10.3633ZM32.7539 7.02344V24.8359H30.2734V7.02344H32.7539ZM17.8906 19.1719C21.0547 19.1914 25.4492 19.1328 29.2578 18.6055L29.4531 20.4023C25.5078 21.1641 21.2891 21.2031 18.1836 21.2031L17.8906 19.1719ZM54.6484 7.02344V24.7969H52.1289V7.02344H54.6484ZM49.3164 8.87891C49.3164 14.2695 47.4219 18.7422 41.0742 21.75L39.7656 19.7578C44.3555 17.5898 46.377 14.7773 46.7773 10.832H40.7227V8.87891H49.3164ZM61.9531 7.78516C64.2285 7.76562 66.0352 9.06445 66.5234 10.9688H69.4922V7.02344H71.9727V16.5742H69.4922V12.9609H66.543C66.0742 14.9141 64.248 16.2422 61.9531 16.2422C59.2188 16.2422 57.207 14.4648 57.2266 11.9844C57.207 9.54297 59.2188 7.76562 61.9531 7.78516ZM61.9531 9.85547C60.5664 9.83594 59.5703 10.6562 59.5898 11.9844C59.5703 13.3125 60.5664 14.1523 61.9531 14.1523C63.3008 14.1523 64.2773 13.3125 64.2773 11.9844C64.2773 10.6562 63.3008 9.83594 61.9531 9.85547ZM62.5781 17.3555V19.0742H69.4922V17.3555H71.9727V24.6016H60.1172V17.3555H62.5781ZM62.5781 22.5898H69.4922V20.9883H62.5781V22.5898ZM85.5469 10.0703C85.5469 12.375 86.7773 14.6602 89.6094 15.5977L88.2617 17.5508C86.377 16.8574 85.0781 15.5488 84.3359 13.8984C83.5645 15.7539 82.1777 17.2188 80.1172 17.9609L78.7695 16.0078C81.7383 15.0312 83.0273 12.5898 83.0273 10.0508V8.11719H85.5469V10.0703ZM93.8672 7.04297V20.168H91.3867V12.8242H88.0469V10.8125H91.3867V7.04297H93.8672ZM94.2383 22.4922V24.4844H82.0312V18.7812H84.5508V22.4922H94.2383ZM103.828 8.21484V10.207H99.1797V11.6719H103.652V13.5664H99.1797V15.1289C101.152 15.1191 102.617 15.041 104.258 14.7578L104.512 16.75C102.422 17.1211 100.684 17.1797 98.0078 17.1797H96.7969V8.21484H103.828ZM111.445 7.04297V17.8828H109.082V13.3711H107.539V17.7461H105.215V7.35547H107.539V11.3789H109.082V7.04297H111.445ZM111.445 18.625V24.7969H108.965V20.6172H99.1602V18.625H111.445ZM127.48 7.02344V13.9766H130.098V16.0273H127.48V24.7969H125.02V7.02344H127.48ZM123.809 9.67969V11.6719H113.359V9.67969H117.383V7.29688H119.883V9.67969H123.809ZM118.633 12.668C121.23 12.668 123.164 14.4258 123.164 16.9062C123.164 19.3867 121.23 21.1445 118.633 21.1445C116.016 21.1445 114.082 19.3867 114.082 16.9062C114.082 14.4258 116.016 12.668 118.633 12.668ZM118.633 14.6797C117.383 14.6992 116.465 15.5391 116.465 16.9062C116.465 18.293 117.383 19.1133 118.633 19.0938C119.883 19.1133 120.781 18.293 120.781 16.9062C120.781 15.5391 119.883 14.6992 118.633 14.6797ZM145.684 7.02344V24.7969H143.164V7.02344H145.684ZM140.352 8.87891C140.352 14.2695 138.457 18.7422 132.109 21.75L130.801 19.7578C135.391 17.5898 137.412 14.7773 137.812 10.832H131.758V8.87891H140.352Z" fill="white"/>
</svg>
