<svg width="32" height="32" viewBox="0 0 32 32" fill="none" xmlns="http://www.w3.org/2000/svg">
<path d="M14.7143 17.619H7.45238C7.04087 17.619 6.69593 17.4798 6.41756 17.2014C6.13919 16.9231 6 16.5781 6 16.1666C6 15.7551 6.13919 15.4102 6.41756 15.1318C6.69593 14.8534 7.04087 14.7143 7.45238 14.7143H14.7143V7.45238C14.7143 7.04087 14.8534 6.69593 15.1318 6.41756C15.4102 6.13919 15.7551 6 16.1666 6C16.5781 6 16.9231 6.13919 17.2014 6.41756C17.4798 6.69593 17.619 7.04087 17.619 7.45238V14.7143H24.8809C25.2924 14.7143 25.6373 14.8534 25.9157 15.1318C26.1941 15.4102 26.3333 15.7551 26.3333 16.1666C26.3333 16.5781 26.1941 16.9231 25.9157 17.2014C25.6373 17.4798 25.2924 17.619 24.8809 17.619H17.619V24.8809C17.619 25.2924 17.4798 25.6373 17.2014 25.9157C16.9231 26.1941 16.5781 26.3333 16.1666 26.3333C15.7551 26.3333 15.4102 26.1941 15.1318 25.9157C14.8534 25.6373 14.7143 25.2924 14.7143 24.8809V17.619Z" fill="#212121"/>
</svg>
