<svg width="22" height="15" viewBox="0 0 22 15" fill="none" xmlns="http://www.w3.org/2000/svg">
<path id="Vector" d="M11.0021 11.5769C12.1352 11.5769 13.0976 11.1803 13.8892 10.3872C14.6809 9.59397 15.0767 8.63083 15.0767 7.49773C15.0767 6.36464 14.6802 5.40227 13.887 4.6106C13.0938 3.81893 12.1307 3.4231 10.9976 3.4231C9.86448 3.4231 8.9021 3.81968 8.11044 4.61285C7.31877 5.40603 6.92294 6.36918 6.92294 7.50228C6.92294 8.63536 7.31952 9.59773 8.11269 10.3894C8.90587 11.1811 9.86901 11.5769 11.0021 11.5769ZM10.9998 10.2C10.2498 10.2 9.61234 9.9375 9.08734 9.4125C8.56234 8.8875 8.29984 8.25 8.29984 7.5C8.29984 6.75 8.56234 6.1125 9.08734 5.5875C9.61234 5.0625 10.2498 4.8 10.9998 4.8C11.7498 4.8 12.3873 5.0625 12.9123 5.5875C13.4373 6.1125 13.6998 6.75 13.6998 7.5C13.6998 8.25 13.4373 8.8875 12.9123 9.4125C12.3873 9.9375 11.7498 10.2 10.9998 10.2ZM10.9998 14.5C8.89472 14.5 6.96941 13.9384 5.22391 12.8154C3.47839 11.6923 2.08513 10.2147 1.04411 8.38268C0.960778 8.23909 0.899878 8.09438 0.861411 7.94855C0.822944 7.8027 0.803711 7.65302 0.803711 7.4995C0.803711 7.34598 0.822944 7.19648 0.861411 7.05098C0.899878 6.90546 0.960778 6.76091 1.04411 6.61733C2.08513 4.78528 3.47839 3.30772 5.22391 2.18465C6.96941 1.06157 8.89472 0.500025 10.9998 0.500025C13.105 0.500025 15.0303 1.06157 16.7758 2.18465C18.5213 3.30772 19.9145 4.78528 20.9556 6.61733C21.0389 6.76091 21.0998 6.90562 21.1383 7.05145C21.1767 7.1973 21.196 7.34698 21.196 7.5005C21.196 7.65402 21.1767 7.80353 21.1383 7.94903C21.0998 8.09454 21.0389 8.23909 20.9556 8.38268C19.9145 10.2147 18.5213 11.6923 16.7758 12.8154C15.0303 13.9384 13.105 14.5 10.9998 14.5ZM10.9998 13C12.8832 13 14.6123 12.5042 16.1873 11.5125C17.7623 10.5208 18.9665 9.18333 19.7998 7.5C18.9665 5.81667 17.7623 4.47917 16.1873 3.4875C14.6123 2.49583 12.8832 2 10.9998 2C9.1165 2 7.38734 2.49583 5.81234 3.4875C4.23734 4.47917 3.03317 5.81667 2.19984 7.5C3.03317 9.18333 4.23734 10.5208 5.81234 11.5125C7.38734 12.5042 9.1165 13 10.9998 13Z" fill="#414141"/>
</svg>
